<?xml version="1.0" encoding="utf-8"?>
<!-- Generator: Adobe Illustrator 18.1.0, SVG Export Plug-In . SVG Version: 6.00 Build 0)  -->
<!DOCTYPE svg PUBLIC "-//W3C//DTD SVG 1.1//EN" "http://www.w3.org/Graphics/SVG/1.1/DTD/svg11.dtd">
<svg version="1.1" id="Layer_1" xmlns="http://www.w3.org/2000/svg" xmlns:xlink="http://www.w3.org/1999/xlink" x="0px" y="0px"
	 viewBox="0 0 124 124" enable-background="new 0 0 124 124" xml:space="preserve">
<g>
	<path fill="#01FF70" d="M62.1-0.4L0.3,61.5l61.9,61.9L124,61.5L62.1-0.4z M60.3,22.8H64l5.8,17.9h-3.4l-1.4-4.8h-6l-1.4,4.8h-3.2
		L60.3,22.8z M33.7,70.4h-3.2V55.2h-5.6v-2.7h14.5v2.7h-5.6V70.4z M68.4,100.1h-2.6v-7.9c0-0.4,0-0.9,0-1.5c0-0.6,0.1-1.2,0.1-1.9
		c0-0.6,0.1-1.3,0.1-1.9c0-0.6,0.1-1.1,0.1-1.5h-0.1l-1.3,4.4l-1.9,5.6h-1.5l-1.9-5.6l-1.3-4.4h-0.1c0,0.4,0.1,0.9,0.1,1.5
		c0,0.6,0.1,1.2,0.1,1.9c0,0.6,0.1,1.3,0.1,1.9c0,0.6,0,1.1,0,1.5v7.9h-2.6V82.2h3.3l2.2,7l0.8,2.7h0.1l0.7-2.7l2.1-7h3.3V100.1z
		 M83.6,85L62.1,63.5L40.7,85l-2-2l21.5-21.5L38.7,40l2-2l21.5,21.5L83.6,38l2,2L64.2,61.5l21.5,21.5L83.6,85z M97.2,68.2
		c-0.6,0.8-1.4,1.4-2.2,1.9c-0.9,0.4-1.8,0.6-2.9,0.6c-1,0-2-0.2-2.9-0.6c-0.9-0.4-1.6-1-2.2-1.9c-0.6-0.8-1.1-1.8-1.4-2.9
		c-0.3-1.1-0.5-2.5-0.5-3.9c0-1.4,0.2-2.7,0.5-3.9c0.3-1.1,0.8-2.1,1.4-2.9c0.6-0.8,1.4-1.4,2.2-1.8c0.9-0.4,1.8-0.6,2.9-0.6
		c1,0,2,0.2,2.9,0.6c0.9,0.4,1.6,1,2.2,1.8c0.6,0.8,1.1,1.7,1.4,2.9c0.3,1.1,0.5,2.4,0.5,3.9c0,1.5-0.2,2.8-0.5,3.9
		C98.3,66.5,97.9,67.4,97.2,68.2z"/>
	<path fill="#01FF70" d="M92.2,55c-1.1,0-2.1,0.6-2.8,1.7c-0.7,1.1-1,2.7-1,4.7c0,1,0.1,1.9,0.3,2.7c0.2,0.8,0.4,1.5,0.8,2.1
		c0.3,0.6,0.7,1,1.2,1.3c0.5,0.3,1,0.5,1.6,0.5c0.6,0,1.1-0.2,1.5-0.5c0.5-0.3,0.9-0.8,1.2-1.3c0.3-0.6,0.6-1.3,0.8-2.1
		c0.2-0.8,0.3-1.7,0.3-2.7c0-2-0.3-3.6-1-4.7C94.2,55.5,93.3,55,92.2,55z"/>
	<path fill="#01FF70" d="M63.7,31.2c-0.3-0.9-0.5-1.9-0.8-2.9c-0.3-1-0.5-2-0.8-3H62c-0.3,1-0.5,2-0.8,3c-0.3,1-0.5,2-0.8,2.9
		l-0.6,2.2h4.5L63.7,31.2z"/>
</g>
</svg>
