<?xml version="1.0" encoding="utf-8"?>
<!-- Generator: Adobe Illustrator 18.1.0, SVG Export Plug-In . SVG Version: 6.00 Build 0)  -->
<!DOCTYPE svg PUBLIC "-//W3C//DTD SVG 1.1//EN" "http://www.w3.org/Graphics/SVG/1.1/DTD/svg11.dtd">
<svg version="1.1" id="Layer_1" xmlns="http://www.w3.org/2000/svg" xmlns:xlink="http://www.w3.org/1999/xlink" x="0px" y="0px"
	 viewBox="0 0 124 124" enable-background="new 0 0 124 124" xml:space="preserve">
<g>
	<path fill="#01FF70" d="M38.7,61.5c1.6,1.8,3.5,3.6,5.6,5.4c-0.1-1.7-0.2-3.4-0.2-5.2c0-1.9,0.1-3.7,0.2-5.5
		C42.3,58,40.4,59.7,38.7,61.5z"/>
	<path fill="#01FF70" d="M32.7,45c-2,3.4-0.3,8.5,3.8,13.9c2.4-2.5,5.2-4.9,8.3-7.2c0.5-3.7,1.2-7.2,2.2-10.3
		c-1.5-0.2-3-0.3-4.4-0.3C37.7,41,34.2,42.4,32.7,45z"/>
	<path fill="#01FF70" d="M53,77c-1.5-0.9-3-1.8-4.4-2.7c0.4,2.5,1,4.8,1.7,7c2.3-0.5,4.6-1.1,7-1.9C55.9,78.6,54.4,77.8,53,77z"/>
	<path fill="#01FF70" d="M57.7,44.1c-2.5-0.9-4.9-1.6-7.3-2.1c-0.7,2.2-1.3,4.6-1.7,7.1c1.5-1,3.1-1.9,4.7-2.8
		C54.8,45.5,56.2,44.8,57.7,44.1z"/>
	<path fill="#01FF70" d="M72.2,39.1c-2.6-6.7-6.4-10.9-10.4-10.9c-4,0-7.7,4.1-10.3,10.6c3.4,0.8,6.9,1.9,10.5,3.4
		C65.5,40.8,68.9,39.8,72.2,39.1z"/>
	<path fill="#01FF70" d="M36.5,64.1c-0.2,0.3-0.4,0.5-0.6,0.8c-3.9,5.2-5.2,10-3.5,13c1.5,2.7,5.2,4.1,10.4,4.1
		c1.3,0,2.7-0.1,4.1-0.3c-0.9-3.1-1.7-6.5-2.1-10.2C41.6,69.1,38.8,66.6,36.5,64.1z"/>
	<path fill="#01FF70" d="M51.4,84.4c2.6,6.7,6.4,10.9,10.4,10.9c4,0,7.7-4.1,10.3-10.6c-3.4-0.8-6.9-1.9-10.5-3.4
		C58.1,82.7,54.7,83.7,51.4,84.4z"/>
	<path fill="#01FF70" d="M70.6,46.5c1.5,0.9,3,1.8,4.4,2.7c-0.4-2.5-1-4.8-1.7-7c-2.3,0.5-4.6,1.1-7,1.9
		C67.7,44.9,69.2,45.7,70.6,46.5z"/>
	<path fill="#01FF70" d="M84.9,62c-1.6-1.8-3.5-3.6-5.6-5.4c0.1,1.7,0.2,3.4,0.2,5.2c0,1.9-0.1,3.7-0.2,5.4
		C81.3,65.5,83.2,63.7,84.9,62z"/>
	<path fill="#01FF70" d="M80.8,41.4c-1.3,0-2.7,0.1-4.1,0.3c0.9,3.1,1.7,6.5,2.1,10.2c3.2,2.4,6,5,8.3,7.5c4.3-5.3,6-10.4,4.1-13.8
		C89.8,42.9,86.1,41.4,80.8,41.4z"/>
	<path fill="#01FF70" d="M65.9,79.4c2.5,0.9,4.9,1.6,7.3,2.1c0.7-2.2,1.3-4.6,1.7-7.1c-1.5,1-3.1,1.9-4.7,2.8
		C68.8,78,67.4,78.7,65.9,79.4z"/>
	<path fill="#01FF70" d="M105.8,43.5V17.8H80L61.8-0.5L43.6,17.8H17.8v25.8L-0.4,61.7L17.8,80v25.8h25.8l18.2,18.2L80,105.7h25.8V80
		L124,61.7L105.8,43.5z M93.8,80.2c-2.1,3.7-6.6,5.6-12.9,5.6c-1.7,0-3.6-0.2-5.5-0.4c-3.2,8.2-8.1,13.3-13.7,13.3
		c-5.6,0-10.6-5.3-13.8-13.7c-1.8,0.3-3.6,0.4-5.2,0.4c-6.5,0-11.3-2.1-13.4-5.9c-2.4-4.3-1.1-10.3,3.8-16.7
		c0.4-0.5,0.7-0.9,1.1-1.4C29,54.7,27.1,48,29.8,43.3c2.1-3.7,6.6-5.6,12.9-5.6c1.7,0,3.6,0.2,5.5,0.4c3.2-8.2,8.1-13.3,13.7-13.3
		c5.6,0,10.6,5.3,13.8,13.7c1.8-0.3,3.6-0.4,5.2-0.4c6.5,0,11.3,2.1,13.4,5.9c2.6,4.8,0.6,11.4-4.9,18.1
		C94.6,68.8,96.5,75.4,93.8,80.2z"/>
	<path fill="#01FF70" d="M68.9,49.4c-2.3-1.3-4.6-2.5-6.9-3.5c-2.3,1-4.7,2.1-7,3.4c-2.4,1.3-4.8,2.8-6.9,4.3
		c-0.3,2.6-0.4,5.4-0.4,8.2c0,2.7,0.2,5.4,0.4,8c2.1,1.5,4.3,3,6.7,4.4c2.3,1.3,4.6,2.5,6.9,3.5c2.3-1,4.7-2.1,7-3.4
		c2.5-1.4,4.8-2.8,6.9-4.3c0.3-2.6,0.4-5.4,0.4-8.2c0-2.7-0.2-5.4-0.4-8C73.5,52.2,71.3,50.7,68.9,49.4z M61.8,67.9
		c-3.3,0-6-2.7-6-6c0-3.3,2.7-6,6-6c3.3,0,6,2.7,6,6C67.8,65.2,65.2,67.9,61.8,67.9z"/>
	<path fill="#01FF70" d="M78.8,71.8c-0.5,3.7-1.2,7.2-2.2,10.3c1.5,0.2,3,0.3,4.4,0.3c5,0,8.5-1.4,10-3.9c2-3.4,0.3-8.5-3.8-13.9
		C84.7,67,81.9,69.5,78.8,71.8z"/>
</g>
</svg>
