<?xml version="1.0" encoding="utf-8"?>
<!-- Generator: Adobe Illustrator 18.1.0, SVG Export Plug-In . SVG Version: 6.00 Build 0)  -->
<!DOCTYPE svg PUBLIC "-//W3C//DTD SVG 1.1//EN" "http://www.w3.org/Graphics/SVG/1.1/DTD/svg11.dtd">
<svg version="1.1" id="Layer_1" xmlns="http://www.w3.org/2000/svg" xmlns:xlink="http://www.w3.org/1999/xlink" x="0px" y="0px"
	 viewBox="0 0 124 124" enable-background="new 0 0 124 124" xml:space="preserve">
<circle fill="#FFFFFF" cx="-37.2" cy="63.2" r="6.5"/>
<circle fill="#FFFFFF" cx="-42.4" cy="57.6" r="6.5"/>
<circle fill="#FFFFFF" cx="-34.4" cy="56" r="6.5"/>
<g>
	<path fill="#01FF70" d="M50.8,88.3c2.8,6.9,6.6,11.6,11.1,11.6c4.4,0,8.2-4.5,11-11.2c-3.6-0.9-7.4-2.1-11.2-3.7
		C58,86.4,54.3,87.5,50.8,88.3z"/>
	<path fill="#01FF70" d="M55.7,41.6c-2.2-0.8-4.3-1.4-6.4-1.8c-0.6,2-1.1,4.1-1.6,6.3c1.4-0.8,2.8-1.7,4.2-2.5
		C53.2,42.9,54.4,42.2,55.7,41.6z"/>
	<path fill="#01FF70" d="M51.5,79.9c-1.3-0.8-2.6-1.5-3.9-2.4c0.4,2.1,0.9,4.1,1.5,6c2-0.4,4-1,6.1-1.6C54,81.2,52.8,80.6,51.5,79.9
		z"/>
	<path fill="#01FF70" d="M73.1,35.3c-2.8-6.9-6.6-11.6-11.1-11.6c-4.4,0-8.2,4.5-11,11.2c3.6,0.9,7.4,2.1,11.2,3.7
		C65.9,37.3,69.5,36.1,73.1,35.3z"/>
	<path fill="#01FF70" d="M32.9,65.4c-4.4,5.5-6.4,10.9-4.3,14.7c1.6,2.9,5.7,4.5,11.5,4.5c1.3,0,2.6-0.1,4-0.2
		c-1-3.4-1.7-7-2.3-10.9C38.5,70.9,35.5,68.2,32.9,65.4z"/>
	<path fill="#01FF70" d="M72.3,43.8c1.3,0.8,2.6,1.5,3.9,2.4c-0.4-2.1-0.9-4.1-1.5-6c-2,0.4-4,1-6.1,1.6
		C69.8,42.4,71.1,43,72.3,43.8z"/>
	<path fill="#01FF70" d="M29,42.8c-1.9,3.3-0.6,8.6,3.7,14.5c0.1,0.1,0.2,0.3,0.3,0.4c2.6-2.6,5.6-5.2,8.9-7.7
		c0.5-4,1.3-7.7,2.3-11.1c-1.5-0.2-2.9-0.3-4.3-0.3C34.4,38.6,30.5,40.1,29,42.8z"/>
	<path fill="#01FF70" d="M36.2,61.6c1.5,1.6,3.2,3.3,5,4.9c-0.1-1.5-0.1-3.1-0.1-4.7c0-1.7,0-3.3,0.1-4.9
		C39.4,58.5,37.7,60,36.2,61.6z"/>
	<path fill="#01FF70" d="M87.7,62.1c-1.5-1.6-3.2-3.3-5-4.9c0.1,1.5,0.1,3,0.1,4.5c0,1.7-0.1,3.4-0.1,5
		C84.5,65.3,86.1,63.7,87.7,62.1z"/>
	<path fill="#01FF70" d="M95.3,43.5c-1.6-2.9-5.7-4.5-11.5-4.5c-1.3,0-2.6,0.1-4,0.2c1,3.4,1.7,7,2.3,10.9c3.4,2.6,6.4,5.3,9,8.1
		c0.1-0.1,0.2-0.3,0.3-0.4C95.7,52.1,97.1,46.8,95.3,43.5z"/>
	<path fill="#01FF70" d="M62,0L8.3,31v62L62,124l53.7-31V31L62,0z M99.2,83.3C96.7,87.7,91.4,90,84,90c-1.9,0-3.9-0.2-6-0.5
		c-3.8,9.4-9.5,15.3-16,15.3c-6.6,0-12.4-6-16.2-15.7c-2,0.3-3.9,0.4-5.7,0.4c-7.7,0-13.4-2.5-15.9-7.1c-3.1-5.6-0.8-13.3,5.4-21
		c-0.3-0.4-0.7-0.9-1-1.3c-5.5-7.7-6.9-14.7-4-19.9c2.5-4.4,7.8-6.7,15.3-6.7c1.9,0,3.9,0.2,6,0.5c3.8-9.4,9.5-15.3,16-15.3
		c6.6,0,12.4,6,16.2,15.7c2-0.3,3.9-0.4,5.7-0.4c7.7,0,13.4,2.5,15.9,7.1c2.9,5.2,1.3,12.2-4.4,19.8c-0.3,0.4-0.7,0.9-1,1.3
		C100.3,70,102.4,77.7,99.2,83.3z"/>
	<path fill="#01FF70" d="M68.2,82c2.2,0.8,4.3,1.4,6.4,1.8c0.6-2,1.1-4.1,1.6-6.3c-1.4,0.9-2.8,1.7-4.2,2.5
		C70.7,80.8,69.4,81.4,68.2,82z"/>
	<path fill="#01FF70" d="M69.8,48.1c-2.6-1.5-5.1-2.8-7.7-4c-2.6,1.1-5.2,2.4-7.8,3.8c-2.6,1.4-5.2,3.1-7.7,4.8
		c-0.3,3-0.5,6.1-0.5,9.1c0,3,0.2,6,0.5,8.9c2.3,1.7,4.8,3.3,7.4,4.8c2.6,1.5,5.1,2.8,7.7,4c2.6-1.1,5.2-2.4,7.8-3.8
		c2.7-1.5,5.3-3.1,7.7-4.7c0.3-3,0.5-6.1,0.5-9.1c0-2.9-0.2-5.9-0.5-8.9C74.9,51.2,72.4,49.6,69.8,48.1z M62,68.9
		c-3.8,0-6.9-3.1-6.9-6.9s3.1-6.9,6.9-6.9c3.8,0,6.9,3.1,6.9,6.9S65.8,68.9,62,68.9z"/>
	<path fill="#01FF70" d="M82,73.7c-0.5,4-1.3,7.7-2.3,11.1c1.5,0.2,2.9,0.3,4.3,0.3c5.5,0,9.4-1.5,11-4.2c2.2-3.8,0.2-9.2-4-14.8
		C88.3,68.6,85.3,71.2,82,73.7z"/>
</g>
<polygon fill="#01FF70" points="386.3,31 440,0 493.7,31 493.7,93 440,124 386.3,93 "/>
<g>
	<circle fill="#414042" cx="440" cy="62" r="6.9"/>
	<path fill="#414042" d="M473.3,60.9c5.7-7.6,7.2-14.6,4.4-19.8c-2.5-4.6-8.1-7.1-15.9-7.1c-1.8,0-3.7,0.1-5.7,0.4
		c-3.8-9.6-9.6-15.7-16.2-15.7c-6.5,0-12.2,5.9-16,15.3c-2.1-0.3-4.1-0.5-6-0.5c-7.5,0-12.7,2.3-15.3,6.7c-3,5.1-1.6,12.2,4,19.9
		c0.3,0.4,0.6,0.9,1,1.3c-6.2,7.7-8.5,15.4-5.4,21c2.5,4.6,8.1,7.1,15.9,7.1c1.8,0,3.7-0.1,5.7-0.4c3.8,9.6,9.6,15.7,16.2,15.7
		c6.5,0,12.2-5.9,16-15.3c2.1,0.3,4.1,0.5,6,0.5c7.5,0,12.7-2.3,15.3-6.7c3.2-5.6,1.1-13.3-4.9-21.1C472.6,61.7,473,61.3,473.3,60.9
		z M461.8,39c5.8,0,9.9,1.6,11.5,4.5c1.8,3.3,0.4,8.6-4,14.4c-0.1,0.1-0.2,0.3-0.3,0.4c-2.6-2.8-5.6-5.5-9-8.1
		c-0.5-3.9-1.3-7.6-2.3-10.9C459.2,39.1,460.5,39,461.8,39z M447.6,75.7c-2.6,1.4-5.2,2.7-7.8,3.8c-2.6-1.2-5.2-2.5-7.7-4
		c-2.6-1.5-5.1-3.1-7.4-4.8c-0.3-3-0.5-6-0.5-8.9c0-3,0.2-6,0.5-9.1c2.5-1.7,5.1-3.4,7.7-4.8c2.6-1.4,5.2-2.7,7.8-3.8
		c2.6,1.2,5.2,2.5,7.7,4c2.5,1.5,5,3.1,7.4,4.9c0.3,2.9,0.5,5.9,0.5,8.9c0,3-0.2,6.1-0.5,9.1C452.8,72.6,450.3,74.2,447.6,75.7z
		 M454.2,77.6c-0.4,2.2-1,4.3-1.6,6.3c-2.1-0.5-4.2-1.1-6.4-1.8c1.3-0.6,2.5-1.3,3.8-2C451.4,79.3,452.8,78.5,454.2,77.6z
		 M433.3,81.9c-2.1,0.7-4.1,1.2-6.1,1.6c-0.6-1.9-1.1-3.9-1.5-6c1.3,0.8,2.5,1.6,3.9,2.4C430.8,80.6,432,81.2,433.3,81.9z
		 M419.2,66.5c-1.8-1.6-3.5-3.2-5-4.9c1.5-1.6,3.2-3.2,5-4.7c-0.1,1.6-0.1,3.2-0.1,4.9C419.1,63.4,419.2,64.9,419.2,66.5z M425.7,46
		c0.4-2.2,1-4.3,1.6-6.3c2.1,0.5,4.2,1.1,6.4,1.8c-1.3,0.6-2.5,1.3-3.8,2C428.5,44.4,427.1,45.2,425.7,46z M446.6,41.7
		c2.1-0.7,4.1-1.2,6.1-1.6c0.6,1.9,1.1,3.9,1.5,6c-1.3-0.8-2.5-1.6-3.9-2.4C449.1,43,447.8,42.4,446.6,41.7z M460.7,57.3
		c1.8,1.6,3.5,3.2,5,4.9c-1.5,1.6-3.2,3.2-5,4.7c0.1-1.6,0.1-3.3,0.1-5C460.8,60.3,460.7,58.8,460.7,57.3z M439.9,23.8
		c4.5,0,8.4,4.7,11.1,11.6c-3.5,0.8-7.2,1.9-10.9,3.4c-3.8-1.6-7.6-2.9-11.2-3.7C431.7,28.3,435.5,23.8,439.9,23.8z M410.7,57.3
		c-4.2-5.9-5.6-11.2-3.7-14.5c1.6-2.7,5.5-4.2,11-4.2c1.4,0,2.8,0.1,4.3,0.3c-1,3.4-1.8,7.1-2.3,11.1c-3.4,2.5-6.4,5.1-8.9,7.7
		C410.9,57.5,410.7,57.4,410.7,57.3z M418.1,84.6c-5.8,0-9.9-1.6-11.5-4.5c-2.1-3.8-0.1-9.2,4.3-14.7c2.6,2.8,5.6,5.5,9,8
		c0.5,3.9,1.3,7.6,2.3,10.9C420.7,84.5,419.4,84.6,418.1,84.6z M439.9,99.9c-4.5,0-8.4-4.7-11.1-11.6c3.5-0.8,7.2-1.9,10.9-3.4
		c3.8,1.6,7.6,2.9,11.2,3.7C448.2,95.3,444.4,99.9,439.9,99.9z M472.9,80.8c-1.6,2.7-5.5,4.2-11,4.2c-1.4,0-2.8-0.1-4.3-0.3
		c1-3.4,1.8-7.1,2.3-11.1c3.3-2.4,6.3-5,8.9-7.7C473.2,71.6,475.1,77,472.9,80.8z"/>
</g>
<polygon fill="#01FF70" points="221.7,31 275.4,0 329.1,31 329.1,93 275.4,124 221.7,93 "/>
<circle fill="#FFFFFF" cx="275.4" cy="62" r="6.9"/>
<ellipse fill="none" stroke="#FFFFFF" stroke-width="5" stroke-miterlimit="10" cx="275.3" cy="61.8" rx="18.3" ry="40.6"/>
<ellipse fill="none" stroke="#FFFFFF" stroke-width="5" stroke-miterlimit="10" cx="275.3" cy="61.8" rx="18.3" ry="40.6"/>
<ellipse transform="matrix(-0.4991 0.8665 -0.8665 -0.4991 466.2878 -145.9059)" fill="none" stroke="#FFFFFF" stroke-width="5" stroke-miterlimit="10" cx="275.3" cy="61.8" rx="18.3" ry="40.6"/>
<ellipse transform="matrix(-0.4814 -0.8765 0.8765 -0.4814 353.6573 332.8852)" fill="none" stroke="#FFFFFF" stroke-width="5" stroke-miterlimit="10" cx="275.3" cy="61.8" rx="18.3" ry="40.6"/>
</svg>
